<svg xmlns="http://www.w3.org/2000/svg" viewBox="0 0 512 512">
  <!-- 1차시 요리사 로봇 '쿡봇' (플레이스홀더) - 같은 파일명으로 교체하면 그림이 바뀝니다 -->
  <g>
    <!-- 요리사 모자 -->
    <path d="M166 150 q-50 -10 -46 -52 q4 -38 48 -36 q12 -40 60 -34 q20 -28 56 -14 q36 -14 56 14 q48 -6 60 34 q44 -2 48 36 q4 42 -46 52 z" fill="#fff" stroke="#e3ddcf" stroke-width="8"/>
    <rect x="166" y="140" width="180" height="34" rx="14" fill="#fff" stroke="#e3ddcf" stroke-width="8"/>
    <!-- 몸통 -->
    <rect x="136" y="170" width="240" height="220" rx="90" fill="#ffe9c9"/>
    <rect x="136" y="170" width="240" height="220" rx="90" fill="none" stroke="#ffab5e" stroke-width="12"/>
    <!-- 얼굴 화면 -->
    <rect x="176" y="210" width="160" height="104" rx="44" fill="#3a3352"/>
    <circle cx="222" cy="256" r="16" fill="#ffd93d"/>
    <circle cx="290" cy="256" r="16" fill="#ffd93d"/>
    <circle cx="227" cy="251" r="5" fill="#fff"/>
    <circle cx="295" cy="251" r="5" fill="#fff"/>
    <path d="M238 288 q18 12 36 0" stroke="#ffd93d" stroke-width="7" stroke-linecap="round" fill="none"/>
    <!-- 볼 -->
    <circle cx="158" cy="300" r="14" fill="#ff8fb1" opacity="0.7"/>
    <circle cx="354" cy="300" r="14" fill="#ff8fb1" opacity="0.7"/>
    <!-- 스카프 -->
    <path d="M176 366 q80 40 160 0 l-12 34 q-68 30 -136 0 z" fill="#ff6b6b"/>
    <!-- 팔: 뒤집개와 국자 -->
    <ellipse cx="112" cy="330" rx="24" ry="38" fill="#ffab5e"/>
    <rect x="96" y="230" width="16" height="80" rx="8" fill="#8d6e63"/>
    <rect x="78" y="196" width="52" height="44" rx="10" fill="#b0bec5"/>
    <ellipse cx="400" cy="330" rx="24" ry="38" fill="#ffab5e"/>
    <rect x="398" y="234" width="16" height="78" rx="8" fill="#8d6e63"/>
    <circle cx="406" cy="216" r="26" fill="#b0bec5"/>
    <!-- 바퀴 -->
    <circle cx="206" cy="424" r="34" fill="#5a3fd6"/>
    <circle cx="306" cy="424" r="34" fill="#5a3fd6"/>
    <circle cx="206" cy="424" r="14" fill="#9d85ff"/>
    <circle cx="306" cy="424" r="14" fill="#9d85ff"/>
  </g>
</svg>
